<?xml version="1.0" encoding="utf-8"?>
<!-- Generator: Adobe Illustrator 21.0.2, SVG Export Plug-In . SVG Version: 6.00 Build 0)  -->
<svg version="1.1" id="Layer_1" xmlns="http://www.w3.org/2000/svg" xmlns:xlink="http://www.w3.org/1999/xlink" x="0px" y="0px"
	 viewBox="0 0 60 60" style="enable-background:new 0 0 60 60;" xml:space="preserve">
<style type="text/css">
	.st0{fill:#63B3C4;}
	.st1{fill:#FFFFFF;}
</style>
<title>forward</title>
<desc>Created with Sketch.</desc>
<path id="Background" class="st0" d="M30,0L30,0c16.6,0,30,13.4,30,30l0,0c0,16.6-13.4,30-30,30l0,0C13.4,60,0,46.6,0,30l0,0
	C0,13.4,13.4,0,30,0z"/>
<g id="Symbols">
	<g id="assets-_x2F_-forward-bubble" transform="translate(-18.000000, -18.000000)">
		<g id="forward" transform="translate(18.000000, 18.000000)">
			<path id="Combined-Shape" class="st1" d="M36.9,31H18c-0.6,0-1-0.4-1-1s0.4-1,1-1h18.9l-9-9c-0.4-0.4-0.4-1,0-1.4
				c0.4-0.4,1-0.4,1.4,0L40,29.3c0.2,0.2,0.3,0.5,0.3,0.7s-0.1,0.5-0.3,0.7L29.3,41.5c-0.4,0.4-1,0.4-1.4,0c-0.4-0.4-0.4-1,0-1.4
				L36.9,31z"/>
		</g>
	</g>
</g>
</svg>
