<?xml version="1.0" encoding="UTF-8"?>
<svg width="22px" height="24px" viewBox="0 0 22 24" version="1.1" xmlns="http://www.w3.org/2000/svg" xmlns:xlink="http://www.w3.org/1999/xlink">
    <!-- Generator: Sketch 43.2 (39069) - http://www.bohemiancoding.com/sketch -->
    <title>Facebook</title>
    <desc>Created with Sketch.</desc>
    <defs></defs>
    <g id="Concierge" stroke="none" stroke-width="1" fill="none" fill-rule="evenodd">
        <g id="Desktop" transform="translate(-108.000000, -6531.000000)" fill="#FFFFFF">
            <g id="08.-Contacto" transform="translate(48.000000, 5832.000000)">
                <g id="01">
                    <g id="Contact" transform="translate(60.000000, 240.000000)">
                        <g id="Social" transform="translate(0.000000, 459.000000)">
                            <path d="M11.3951111,24 L1.17777778,24 C0.527111111,24 0,23.4065 0,22.6755 L0,1.3245 C0,0.593 0.527111111,0 1.17777778,0 L20.156,0 C20.8062222,0 21.3333333,0.593 21.3333333,1.3245 L21.3333333,22.6755 C21.3333333,23.4065 20.8062222,24 20.156,24 L14.7195556,24 L14.7195556,14.706 L17.4928889,14.706 L17.908,11.0835 L14.7195556,11.0835 L14.7195556,8.771 C14.7195556,7.7225 14.9786667,7.008 16.3151111,7.008 L18.02,7.007 L18.02,3.7675 C17.7253333,3.7235 16.7133333,3.625 15.5355556,3.625 C13.0777778,3.625 11.3951111,5.3125 11.3951111,8.4125 L11.3951111,11.0835 L8.61511111,11.0835 L8.61511111,14.706 L11.3951111,14.706 L11.3951111,24 Z" id="Facebook"></path>
                        </g>
                    </g>
                </g>
            </g>
        </g>
    </g>
</svg>