<?xml version="1.0" encoding="utf-8"?>
<!-- Generator: Adobe Illustrator 16.0.0, SVG Export Plug-In . SVG Version: 6.00 Build 0)  -->
<!DOCTYPE svg PUBLIC "-//W3C//DTD SVG 1.1//EN" "http://www.w3.org/Graphics/SVG/1.1/DTD/svg11.dtd">
<svg version="1.1" id="Layer_1" xmlns="http://www.w3.org/2000/svg" xmlns:xlink="http://www.w3.org/1999/xlink" x="0px" y="0px"
	 width="612px" height="792px" viewBox="0 0 612 792" enable-background="new 0 0 612 792" xml:space="preserve">
<path fill="#FFFFFF" d="M581.4,432.72H410.04c-15.3,0-27.54,9.181-30.6,24.48L351.9,585.72c-52.021-24.479-97.92-58.14-137.7-97.92
	c-39.78-39.78-73.44-85.68-97.92-137.7l128.52-27.54c15.3-3.06,24.48-15.3,24.48-30.6V120.6c0-18.36-15.3-30.6-30.6-30.6H30.6
	C12.24,90,0,102.24,0,120.6s0,238.68,171.36,410.04C342.72,702,563.04,702,581.4,702c18.359,0,30.6-12.24,30.6-30.6V463.32
	C612,448.02,599.76,432.72,581.4,432.72z M61.2,151.2h143.82v116.28L88.74,291.96C76.5,252.18,67.32,197.1,61.2,151.2z M550.8,640.8
	c-45.899-6.12-100.979-15.3-140.76-27.54L434.52,496.98H550.8V640.8z"/>
</svg>
