<?xml version="1.0" encoding="utf-8"?>
<!-- Generator: Adobe Illustrator 21.0.2, SVG Export Plug-In . SVG Version: 6.00 Build 0)  -->
<svg version="1.1" id="Layer_1" xmlns="http://www.w3.org/2000/svg" xmlns:xlink="http://www.w3.org/1999/xlink" x="0px" y="0px"
	 viewBox="0 0 26 26" style="enable-background:new 0 0 26 26;" xml:space="preserve">
<style type="text/css">
	.st0{fill:#89DAEB;}
</style>
<title>Group 2</title>
<desc>Created with Sketch.</desc>
<g>
	<path class="st0" d="M23,0H3C1.3,0,0,1.3,0,3v13.3c0,1.7,1.3,3,3,3h4.5l4.7,6.3c0.4,0.5,1.2,0.5,1.6,0l4.7-6.3H23c1.7,0,3-1.3,3-3
		V3C26,1.3,24.7,0,23,0z M24,16.3c0,0.6-0.4,1-1,1h-3h-2.5l-1.5,2l-3,4l-3-4l-1.5-2H6H3c-0.6,0-1-0.4-1-1V3c0-0.6,0.4-1,1-1h20
		c0.6,0,1,0.4,1,1V16.3z"/>
	<path class="st0" d="M18.3,5.3H7.7c-0.6,0-1,0.4-1,1c0,0.6,0.4,1,1,1h10.7c0.6,0,1-0.4,1-1C19.3,5.8,18.9,5.3,18.3,5.3z"/>
	<path class="st0" d="M18.3,12H7.7c-0.6,0-1,0.4-1,1s0.4,1,1,1h10.7c0.6,0,1-0.4,1-1S18.9,12,18.3,12z"/>
</g>
</svg>
