<?xml version="1.0" encoding="UTF-8"?>
<svg width="30px" height="23px" viewBox="0 0 30 23" version="1.1" xmlns="http://www.w3.org/2000/svg" xmlns:xlink="http://www.w3.org/1999/xlink">
    <!-- Generator: Sketch 43.2 (39069) - http://www.bohemiancoding.com/sketch -->
    <title>YouTube</title>
    <desc>Created with Sketch.</desc>
    <defs></defs>
    <g id="Concierge" stroke="none" stroke-width="1" fill="none" fill-rule="evenodd">
        <g id="Desktop" transform="translate(-282.000000, -6532.000000)" fill="#FFFFFF">
            <g id="08.-Contacto" transform="translate(48.000000, 5832.000000)">
                <g id="01">
                    <g id="Contact" transform="translate(60.000000, 240.000000)">
                        <g id="Social" transform="translate(0.000000, 459.000000)">
                            <path d="M203.699688,6.35338235 C203.699688,6.35338235 203.406563,4.14904412 202.507813,3.17823529 C201.366563,1.90367647 200.087813,1.89772059 199.501563,1.82360294 C195.303438,1.5 189.006563,1.5 189.006563,1.5 L188.993438,1.5 C188.993438,1.5 182.696563,1.5 178.497813,1.82360294 C177.910938,1.89772059 176.633438,1.90367647 175.491563,3.17823529 C174.592813,4.14904412 174.299688,6.35338235 174.299688,6.35338235 C174.299688,6.35338235 173.999688,8.94286765 173.999688,11.5310294 L173.999688,13.9577206 C173.999688,16.5472059 174.299688,19.1353676 174.299688,19.1353676 C174.299688,19.1353676 174.592813,21.3397059 175.491563,22.3105147 C176.633438,23.5850735 178.132188,23.5453676 178.800313,23.6783824 C181.199688,23.9238971 188.999688,24 188.999688,24 C188.999688,24 195.303438,23.9900735 199.501563,23.6658088 C200.087813,23.5910294 201.366563,23.5850735 202.507813,22.3105147 C203.406563,21.3397059 203.699688,19.1353676 203.699688,19.1353676 C203.699688,19.1353676 203.999688,16.5472059 203.999688,13.9577206 L203.999688,11.5310294 C203.999688,8.94286765 203.699688,6.35338235 203.699688,6.35338235 L203.699688,6.35338235 Z M185.902188,16.8992647 L185.901563,7.91117647 L194.007188,12.4204412 L185.902188,16.8992647 Z" id="YouTube"></path>
                        </g>
                    </g>
                </g>
            </g>
        </g>
    </g>
</svg>