<?xml version="1.0" encoding="UTF-8"?>
<svg width="30px" height="22px" viewBox="0 0 30 22" version="1.1" xmlns="http://www.w3.org/2000/svg" xmlns:xlink="http://www.w3.org/1999/xlink">
    <!-- Generator: Sketch 43.2 (39069) - http://www.bohemiancoding.com/sketch -->
    <title>Twitter</title>
    <desc>Created with Sketch.</desc>
    <defs></defs>
    <g id="Concierge" stroke="none" stroke-width="1" fill="none" fill-rule="evenodd">
        <g id="Desktop" transform="translate(-163.000000, -6532.000000)" fill="#FFFFFF">
            <g id="08.-Contacto" transform="translate(48.000000, 5832.000000)">
                <g id="01">
                    <g id="Contact" transform="translate(60.000000, 240.000000)">
                        <g id="Social" transform="translate(0.000000, 459.000000)">
                            <path d="M84.3,4.02533333 C83.2416,4.4536 82.1022,4.7432 80.9076,4.8728 C82.128,4.2072 83.064,3.15173333 83.5056,1.89413333 C82.3626,2.51066667 81.1002,2.95866667 79.7508,3.1992 C78.6762,2.15333333 77.139,1.5 75.4386,1.5 C72.1782,1.5 69.5322,3.9112 69.5322,6.88506667 C69.5322,7.30746667 69.5832,7.71706667 69.6846,8.11173333 C64.7736,7.88666667 60.4212,5.7448 57.5046,2.48293333 C56.9958,3.2808 56.7054,4.2072 56.7054,5.19333333 C56.7054,7.06053333 57.7482,8.7096 59.334,9.67546667 C58.3668,9.64933333 57.4542,9.40453333 56.6562,9.004 L56.6562,9.07013333 C56.6562,11.6802667 58.6932,13.8578667 61.398,14.3506667 C60.9024,14.4770667 60.3804,14.5405333 59.841,14.5405333 C59.4606,14.5405333 59.0886,14.5074667 58.7286,14.4445333 C59.481,16.5832 61.662,18.1410667 64.248,18.1826667 C62.226,19.628 59.6772,20.4893333 56.91,20.4893333 C56.433,20.4893333 55.9614,20.4648 55.5,20.4152 C58.1148,21.9410667 61.2222,22.8333333 64.5576,22.8333333 C75.4272,22.8333333 81.3684,14.628 81.3684,7.51066667 C81.3684,7.27653333 81.3636,7.0424 81.3534,6.81306667 C82.5084,6.05306667 83.511,5.10533333 84.3,4.02533333" id="Twitter"></path>
                        </g>
                    </g>
                </g>
            </g>
        </g>
    </g>
</svg>