<?xml version="1.0" encoding="utf-8"?>
<!-- Generator: Adobe Illustrator 21.0.2, SVG Export Plug-In . SVG Version: 6.00 Build 0)  -->
<svg version="1.1" id="Layer_1" xmlns="http://www.w3.org/2000/svg" xmlns:xlink="http://www.w3.org/1999/xlink" x="0px" y="0px"
	 viewBox="0 0 60 60" style="enable-background:new 0 0 60 60;" xml:space="preserve">
<style type="text/css">
	.st0{fill:#63B3C4;}
	.st1{fill:#FFFFFF;}
</style>
<title>forward</title>
<desc>Created with Sketch.</desc>
<path id="Background" class="st0" d="M30,60L30,60C13.4,60,0,46.6,0,30l0,0C0,13.4,13.4,0,30,0l0,0c16.6,0,30,13.4,30,30l0,0
	C60,46.6,46.6,60,30,60z"/>
<g id="Symbols">
	<g id="assets-_x2F_-forward-bubble" transform="translate(-18.000000, -18.000000)">
		<g id="forward" transform="translate(18.000000, 18.000000)">
			<path id="Combined-Shape" class="st1" d="M23.1,29H42c0.6,0,1,0.4,1,1s-0.4,1-1,1H23.1l9,9c0.4,0.4,0.4,1,0,1.4s-1,0.4-1.4,0
				L20,30.7c-0.2-0.2-0.3-0.5-0.3-0.7s0.1-0.5,0.3-0.7l10.7-10.7c0.4-0.4,1-0.4,1.4,0s0.4,1,0,1.4L23.1,29z"/>
		</g>
	</g>
</g>
</svg>
