<?xml version="1.0" encoding="utf-8"?>
<!-- Generator: Adobe Illustrator 16.0.0, SVG Export Plug-In . SVG Version: 6.00 Build 0)  -->
<!DOCTYPE svg PUBLIC "-//W3C//DTD SVG 1.1//EN" "http://www.w3.org/Graphics/SVG/1.1/DTD/svg11.dtd">
<svg version="1.1" id="Layer_1" xmlns="http://www.w3.org/2000/svg" xmlns:xlink="http://www.w3.org/1999/xlink" x="0px" y="0px"
	 width="612px" height="792px" viewBox="0 0 612 792" enable-background="new 0 0 612 792" xml:space="preserve">
<title>message</title>
<desc>Created with Sketch.</desc>
<path fill="#89DAEB" d="M612,192.927c0-2.782,0-2.782,0-5.563c0-2.781,0-2.782-2.782-5.564v-2.782c0,0,0,0-2.78-2.782
	c0-2.782-2.782-2.782-2.782-2.782s-2.781-2.782-5.563-2.782c-2.781,0-2.781-2.782-5.563-2.782c-2.782,0-2.782,0-5.563,0h-2.782
	H27.818h-2.782c-2.782,0-2.782,0-5.563,0c-2.781,0-2.782,0-5.563,2.782l-2.782,2.782c-2.782,0-2.782,2.782-2.782,2.782
	s0,0-2.782,2.782v2.782c0,2.782-2.782,2.782-2.782,5.564c0,2.782,0,2.782,0,5.563v2.782v400.582
	c0,16.69,11.127,27.818,27.818,27.818h556.364c16.69,0,27.818-11.128,27.818-27.818L612,192.927L612,192.927z M306,345.927
	l-186.382-122.4h372.764L306,345.927z M55.636,568.473v-322.69l233.673,155.782l0,0c2.782,2.781,5.563,2.781,11.127,2.781
	c2.782,0,2.782,0,5.563,0c2.782,0,2.782,0,5.563,0s8.346-2.781,11.127-2.781l0,0l233.673-155.782v322.69H55.636z"/>
</svg>
