<?xml version="1.0" encoding="utf-8"?>
<!-- Generator: Adobe Illustrator 16.0.0, SVG Export Plug-In . SVG Version: 6.00 Build 0)  -->
<!DOCTYPE svg PUBLIC "-//W3C//DTD SVG 1.1//EN" "http://www.w3.org/Graphics/SVG/1.1/DTD/svg11.dtd">
<svg version="1.1" id="Layer_1" xmlns="http://www.w3.org/2000/svg" xmlns:xlink="http://www.w3.org/1999/xlink" x="0px" y="0px"
	 width="612px" height="792px" viewBox="0 0 612 792" enable-background="new 0 0 612 792" xml:space="preserve">
<title>message</title>
<desc>Created with Sketch.</desc>
<path fill="#FFFFFF" d="M612,192.927c0-2.782,0-2.782,0-5.563s0-2.782-2.782-5.564v-2.782c0,0,0,0-2.781-2.782
	c0-2.782-2.782-2.782-2.782-2.782s-2.781-2.782-5.563-2.782s-2.782-2.782-5.563-2.782c-2.782,0-2.782,0-5.563,0h-2.782H27.818
	h-2.782c-2.782,0-2.782,0-5.563,0s-2.782,0-5.563,2.782l-2.782,2.782c-2.782,0-2.782,2.782-2.782,2.782s0,0-2.782,2.782v2.782
	c0,2.782-2.782,2.782-2.782,5.564s0,2.782,0,5.563v2.782v400.582c0,16.69,11.127,27.818,27.818,27.818h556.364
	c16.69,0,27.818-11.128,27.818-27.818L612,192.927L612,192.927z M306,345.927l-186.382-122.4h372.764L306,345.927z M55.636,568.473
	V245.782l233.673,155.782l0,0c2.782,2.782,5.563,2.782,11.127,2.782c2.782,0,2.782,0,5.563,0c2.782,0,2.782,0,5.563,0
	c2.782,0,8.346-2.782,11.127-2.782l0,0l233.673-155.782v322.691H55.636z"/>
</svg>
