<?xml version="1.0" encoding="UTF-8"?>
<svg width="24px" height="22px" viewBox="0 0 24 22" version="1.1" xmlns="http://www.w3.org/2000/svg" xmlns:xlink="http://www.w3.org/1999/xlink">
    <!-- Generator: Sketch 43.2 (39069) - http://www.bohemiancoding.com/sketch -->
    <title>Linkedin</title>
    <desc>Created with Sketch.</desc>
    <defs></defs>
    <g id="Concierge" stroke="none" stroke-width="1" fill="none" fill-rule="evenodd">
        <g id="Desktop" transform="translate(-225.000000, -6532.000000)" fill="#FFFFFF">
            <g id="08.-Contacto" transform="translate(48.000000, 5832.000000)">
                <g id="01">
                    <g id="Contact" transform="translate(60.000000, 240.000000)">
                        <g id="Social" transform="translate(0.000000, 459.000000)">
                            <path d="M117.592,22.8333333 L122.165867,22.8333333 L122.165867,8.34106667 L117.592,8.34106667 L117.592,22.8333333 Z M119.762133,6.52826667 L119.729067,6.52826667 C118.0736,6.52826667 117,5.42053333 117,4.01626667 C117,2.5848 118.105067,1.5 119.794133,1.5 C121.4816,1.5 122.518933,2.5816 122.552,4.012 C122.552,5.41626667 121.4816,6.52826667 119.762133,6.52826667 L119.762133,6.52826667 Z M140.466667,22.8333333 L135.28,22.8333333 L135.28,15.3336 C135.28,13.3709333 134.4688,12.0306667 132.6848,12.0306667 C131.320533,12.0306667 130.5616,12.9346667 130.208533,13.8066667 C130.076267,14.1192 130.096533,14.5554667 130.096533,14.9912 L130.096533,22.8333333 L124.9584,22.8333333 C124.9584,22.8333333 125.024533,9.54853333 124.9584,8.34106667 L130.096533,8.34106667 L130.096533,10.6157333 C130.4,9.62106667 132.042133,8.20186667 134.661867,8.20186667 C137.912533,8.20186667 140.466667,10.2866667 140.466667,14.7752 L140.466667,22.8333333 Z" id="Linkedin"></path>
                        </g>
                    </g>
                </g>
            </g>
        </g>
    </g>
</svg>