<?xml version="1.0" encoding="utf-8"?>
<!-- Generator: Adobe Illustrator 21.0.2, SVG Export Plug-In . SVG Version: 6.00 Build 0)  -->
<svg version="1.1" id="Layer_1" xmlns="http://www.w3.org/2000/svg" xmlns:xlink="http://www.w3.org/1999/xlink" x="0px" y="0px"
	 viewBox="0 0 60 60" style="enable-background:new 0 0 60 60;" xml:space="preserve">
<style type="text/css">
	.st0{fill:#FFFFFF;}
	.st1{fill:#63B3C4;}
</style>
<title>assets / play bubble</title>
<desc>Created with Sketch.</desc>
<path id="Background" class="st0" d="M30,0L30,0c16.6,0,30,13.4,30,30l0,0c0,16.6-13.4,30-30,30l0,0C13.4,60,0,46.6,0,30l0,0
	C0,13.4,13.4,0,30,0z"/>
<path id="Path-32" class="st1" d="M24,37.3L37.9,30L24,22.7V37.3z M23.5,20.1l17,9c0.7,0.4,0.7,1.4,0,1.8l-17,9
	C22.8,40.2,22,39.8,22,39V21C22,20.2,22.8,19.8,23.5,20.1z"/>
</svg>
