<?xml version="1.0" encoding="utf-8"?>
<!-- Generator: Adobe Illustrator 21.0.2, SVG Export Plug-In . SVG Version: 6.00 Build 0)  -->
<svg version="1.1" id="Layer_1" xmlns="http://www.w3.org/2000/svg" xmlns:xlink="http://www.w3.org/1999/xlink" x="0px" y="0px"
	 viewBox="0 0 26 26" style="enable-background:new 0 0 26 26;" xml:space="preserve">
<style type="text/css">
	.st0{fill:#89DAEB;}
</style>
<title>Oval</title>
<desc>Created with Sketch.</desc>
<g>
	<path class="st0" d="M17.1,12.7C18.9,11.4,20,9.3,20,7c0-3.9-3.1-7-7-7C9.1,0,6,3.1,6,7c0,2.3,1.1,4.4,2.9,5.7
		C3.7,14.4,0,19.3,0,25c0,0.6,0.4,1,1,1h24c0.6,0,1-0.4,1-1C26,19.3,22.3,14.4,17.1,12.7z M8,7c0-2.8,2.2-5,5-5s5,2.2,5,5
		s-2.2,5-5,5S8,9.8,8,7z M2,24c0.5-5.6,5.2-10,11-10s10.4,4.4,11,10H2z"/>
</g>
</svg>
