<?xml version="1.0" encoding="utf-8"?>
<!-- Generator: Adobe Illustrator 16.0.0, SVG Export Plug-In . SVG Version: 6.00 Build 0)  -->
<!DOCTYPE svg PUBLIC "-//W3C//DTD SVG 1.1//EN" "http://www.w3.org/Graphics/SVG/1.1/DTD/svg11.dtd">
<svg version="1.1" id="Layer_1" xmlns="http://www.w3.org/2000/svg" xmlns:xlink="http://www.w3.org/1999/xlink" x="0px" y="0px"
	 width="612px" height="176px" viewBox="0 306.5 612 176" enable-background="new 0 306.5 612 176" xml:space="preserve">
<title>CONCIERGE</title>
<desc>Created with Sketch.</desc>
<g>
	<path fill="#FFFFFF" d="M300.193,449.159c-3.127,0-5.584,1.34-6.701,3.797v-10.944h-2.681v24.793h2.681v-3.797
		c1.34,2.456,3.797,3.797,6.924,3.797c4.914,0,8.265-3.574,8.265-8.935C308.457,452.956,305.106,449.159,300.193,449.159z
		 M299.746,464.794c-3.797,0-6.254-2.68-6.254-6.7c0-3.798,2.68-6.701,6.254-6.701s6.254,2.903,6.254,6.701
		C306,461.891,303.32,464.794,299.746,464.794z"/>
	<polygon fill="#FFFFFF" points="196.108,378.578 163.051,337.257 152.777,337.257 152.777,403.817 165.508,403.817 
		165.508,358.923 201.022,404.041 201.022,403.817 208.839,403.817 208.839,337.257 196.108,337.257 	"/>
	<path fill="#FFFFFF" d="M258.202,393.543c-16.752,0-23.229-11.614-23.229-22.559c0-11.168,6.924-23.006,23.229-23.006
		c5.807,0,11.838,2.01,16.305,6.254l8.488-8.041c-6.924-6.701-15.635-10.274-24.792-10.274c-24.346,0-35.961,17.645-35.737,35.067
		c0,17.199,10.721,34.397,35.737,34.397c9.828,0,18.762-3.127,25.686-9.828l-8.711-8.711
		C270.709,391.31,264.009,393.543,258.202,393.543z"/>
	<path fill="#FFFFFF" d="M104.084,335.917c-23.452,0-34.844,17.645-34.844,35.291c0,17.645,11.168,34.173,34.844,34.173
		c23.676,0,34.397-17.198,34.621-34.397C138.929,353.562,127.314,335.917,104.084,335.917z M104.084,393.99
		c-15.858,0-21.889-11.615-22.112-22.559c-0.223-11.168,6.254-23.899,22.112-23.899s22.336,12.508,22.113,23.676
		C125.974,382.152,119.943,393.99,104.084,393.99z"/>
	<path fill="#FFFFFF" d="M399.811,381.705h12.284l19.655,22.336h15.188v-0.894l-20.549-22.783
		c12.955-2.457,17.198-11.838,17.198-20.996c0-11.614-8.487-21.889-24.346-22.112c-10.721,0-21.442,0-32.163,0v66.561h12.731
		V381.705L399.811,381.705z M399.811,349.095h19.432c8.041,0,11.614,5.361,11.614,10.721c0,5.361-3.573,10.721-11.614,10.721
		h-19.432V349.095z"/>
	<path fill="#FFFFFF" d="M35.737,393.543c-16.752,0-23.229-11.614-23.229-22.559c0-10.944,6.924-23.006,23.229-23.006
		c5.807,0,11.838,2.01,16.305,6.254l8.487-8.041c-6.924-6.701-15.635-10.274-24.792-10.274C11.391,335.917,0,353.785,0,371.208
		c0,17.198,10.721,34.397,35.737,34.397c9.828,0,18.762-3.127,25.686-9.828l-8.711-8.711
		C48.469,391.31,41.768,393.543,35.737,393.543z"/>
	<polygon fill="#FFFFFF" points="373.454,391.533 335.483,391.533 335.483,376.568 360.053,376.568 360.053,364.73 335.483,364.73 
		335.483,349.542 373.454,349.542 373.454,337.257 322.752,337.257 322.752,403.817 373.454,403.817 	"/>
	<rect x="294.832" y="337.257" fill="#FFFFFF" width="12.731" height="66.561"/>
	<polygon fill="#FFFFFF" points="578.273,460.327 545.663,425.26 536.952,425.26 536.952,467.921 544.1,467.921 544.1,432.854 
		576.486,467.921 585.197,467.921 585.197,425.26 578.273,425.26 	"/>
	<polygon fill="#FFFFFF" points="584.974,391.533 547.003,391.533 547.003,377.685 571.572,377.685 571.572,366.07 547.003,366.07 
		547.003,350.658 584.974,350.658 584.974,338.597 534.271,338.597 534.271,403.817 584.974,403.817 	"/>
	<path fill="#FFFFFF" d="M318.508,463.9l-5.807-14.518h-2.681l7.371,17.422l-0.671,1.563c-0.67,1.563-1.786,2.457-3.127,2.457
		c-0.893,0-1.563-0.224-2.457-0.894l-1.116,2.01c1.116,0.894,2.233,1.34,3.797,1.34c2.233,0,4.244-1.34,5.36-4.02l8.041-20.103
		h-2.68L318.508,463.9z"/>
	<path fill="#FFFFFF" d="M504.118,347.531l-14.965,0.224c-11.838,0-20.772,6.03-23.676,15.635c7.37-6.477,13.178-6.254,22.782-6.254
		C501.215,357.136,504.342,351.329,504.118,347.531z"/>
	<path fill="#FFFFFF" d="M605.299,344.181c0-2.68-2.457-3.127-4.913-3.127h-3.574v10.721h2.681v-4.021h0.67l2.457,4.021h2.903
		l-2.681-4.244C603.959,347.308,605.299,345.968,605.299,344.181z M600.832,345.521h-1.34v-2.233h1.34c0.67,0,1.787,0,1.787,1.117
		C602.619,345.298,601.502,345.521,600.832,345.521z"/>
	<path fill="#FFFFFF" d="M600.832,336.363c-5.584,0-10.274,4.467-10.274,10.275c0,5.583,4.69,10.274,10.274,10.274
		s10.274-4.467,10.274-10.274C611.106,340.831,606.64,336.363,600.832,336.363z M600.832,354.232c-4.244,0-7.594-3.574-7.594-7.817
		c0-4.467,3.35-7.817,7.594-7.817s7.594,3.574,7.594,7.817C608.426,350.882,605.076,354.232,600.832,354.232z"/>
	<path fill="#FFFFFF" d="M467.041,365.624c2.68,0,5.584,0.223,8.487,0c2.681-0.224,5.36-0.447,7.817-1.117
		c2.233-0.67,3.797-2.457,4.021-4.914C478.432,358.476,470.614,360.709,467.041,365.624z"/>
	<path fill="#FFFFFF" d="M443.588,429.727c-4.913-3.797-11.167-5.807-18.538-5.807s-13.625,2.01-18.539,5.807
		c-5.808,4.468-8.711,10.052-8.711,16.752c0,6.925,2.904,12.509,8.487,16.976c4.914,3.797,11.168,5.808,18.763,5.808
		c7.371,0,13.625-1.787,18.538-5.584c5.808-4.244,8.488-10.052,8.488-16.976S449.172,433.971,443.588,429.727z M439.345,458.094
		c-3.574,2.903-8.488,4.467-14.519,4.467s-10.944-1.563-14.519-4.467c-3.573-2.904-5.36-6.925-5.36-11.615s1.787-8.487,5.584-11.614
		s8.487-4.467,14.519-4.467c5.36,0,9.827,1.34,13.625,4.021c4.243,3.127,6.254,7.147,6.254,12.061
		C444.705,451.393,442.918,455.189,439.345,458.094z"/>
	<path fill="#FFFFFF" d="M535.165,316.708c-5.808,11.615-15.858,14.295-26.356,15.188c-10.721,1.117-16.528,1.34-27.249,2.01l0,0
		c-21.666,1.563-32.388,18.092-32.388,35.96c0,17.422,10.274,33.95,35.737,33.95c5.808,0,10.944-1.116,15.188-3.127v3.127h11.615
		V368.75H487.59v11.168h12.508v6.924c-5.36,4.244-10.051,5.361-15.188,5.361c-16.752,0-23.229-11.392-23.229-22.336
		c0-13.625,8.711-24.569,23.229-24.569c0,0,24.123-0.224,26.133-0.224c8.711,0,17.422-1.787,23.453-10.498
		C538.516,328.993,538.738,322.739,535.165,316.708z"/>
	<path fill="#FFFFFF" d="M388.643,446.479c-2.457-2.01-6.478-3.127-11.838-4.021c-1.787-0.223-5.808-0.446-11.615-0.893
		c-4.021-0.224-6.924-0.671-8.711-1.341c-2.457-0.894-3.797-2.233-3.797-4.021c0-1.786,1.117-3.127,3.351-4.243
		c2.233-1.117,5.584-1.563,10.051-1.563c6.478,0,12.955,1.563,19.209,4.913l4.244-4.69c-6.255-4.243-13.849-6.254-23.006-6.254
		c-6.701,0-12.062,1.117-15.858,3.574c-3.798,2.233-5.584,5.584-5.584,9.381s1.563,6.7,4.913,8.264
		c2.904,1.341,7.818,2.457,14.742,2.904c7.817,0.446,12.731,0.894,14.519,1.563c3.35,0.894,5.137,2.68,5.137,5.36
		c0,2.233-1.34,4.244-4.021,5.584c-2.68,1.34-6.478,2.011-11.614,2.011c-7.595,0-14.742-2.011-21.442-6.031l-3.797,5.138
		c6.03,4.69,14.518,7.147,25.239,7.147c7.371,0,13.178-1.341,17.198-3.798c4.021-2.456,6.03-6.03,6.03-10.497
		C392.439,451.169,391.1,448.489,388.643,446.479z"/>
	<polygon fill="#FFFFFF" points="501.661,442.682 467.711,442.682 467.711,425.26 460.563,425.26 460.563,467.921 467.711,467.921 
		467.711,448.936 501.661,448.936 501.661,467.921 508.585,467.921 508.585,425.26 501.661,425.26 	"/>
	<rect x="519.307" y="425.26" fill="#FFFFFF" width="6.924" height="42.661"/>
</g>
</svg>
