<?xml version="1.0" encoding="utf-8"?>
<!-- Generator: Adobe Illustrator 16.0.0, SVG Export Plug-In . SVG Version: 6.00 Build 0)  -->
<!DOCTYPE svg PUBLIC "-//W3C//DTD SVG 1.1//EN" "http://www.w3.org/Graphics/SVG/1.1/DTD/svg11.dtd">
<svg version="1.1" id="Layer_1" xmlns="http://www.w3.org/2000/svg" xmlns:xlink="http://www.w3.org/1999/xlink" x="0px" y="0px"
	 width="612px" height="104px" viewBox="0 346.5 612 104" enable-background="new 0 346.5 612 104" xml:space="preserve">
<g>
	<path fill="#FFFFFF" d="M600.832,370.984c-5.584,0-10.274,4.467-10.274,10.274c0,5.584,4.69,10.274,10.274,10.274
		s10.274-4.467,10.274-10.274S606.64,370.984,600.832,370.984z M600.832,388.853c-4.244,0-7.594-3.574-7.594-7.817
		c0-4.467,3.35-7.818,7.594-7.818s7.594,3.574,7.594,7.818C608.426,385.502,605.076,388.853,600.832,388.853z"/>
	<path fill="#FFFFFF" d="M605.299,378.801c0-2.68-2.457-3.127-4.913-3.127h-3.574v10.721h2.681v-4.021h0.67l2.457,4.021h2.903
		l-2.681-4.244C603.959,381.929,605.299,380.588,605.299,378.801z M600.832,380.142h-1.34v-2.233h1.34c0.67,0,1.787,0,1.787,1.117
		C602.619,379.918,601.502,380.142,600.832,380.142z"/>
	<polygon fill="#FFFFFF" points="534.271,438.438 584.974,438.438 584.974,426.153 547.003,426.153 547.003,412.305 
		571.572,412.305 571.572,400.69 547.003,400.69 547.003,385.279 584.974,385.279 584.974,373.217 534.271,373.217 	"/>
	<path fill="#FFFFFF" d="M504.118,382.152l-14.965,0.223c-11.838,0-20.772,6.031-23.676,15.635
		c7.37-6.477,13.178-6.253,22.782-6.253C501.215,391.756,504.342,385.949,504.118,382.152z"/>
	<path fill="#FFFFFF" d="M467.041,400.244c2.68,0,5.584,0.223,8.487,0c2.681-0.224,5.36-0.447,7.817-1.117
		c2.233-0.67,3.797-2.457,4.021-4.914C478.432,393.096,470.614,395.33,467.041,400.244z"/>
	<path fill="#FFFFFF" d="M534.718,369.197c3.798-5.584,4.021-11.838,0.447-17.869c-5.808,11.614-15.858,14.295-26.356,15.188
		c-10.721,1.117-16.528,1.34-27.25,2.01l0,0c-21.665,1.563-32.387,18.092-32.387,35.96c0,17.422,10.274,33.95,35.737,33.95
		c5.808,0,10.944-1.116,15.188-3.127v3.127h11.614v-35.066H487.59v11.168h12.508v6.924c-5.36,4.244-10.051,5.36-15.188,5.36
		c-16.752,0-23.229-11.392-23.229-22.336c0-13.625,8.711-24.569,23.229-24.569c0,0,24.123-0.224,26.133-0.224
		C519.977,379.695,528.688,377.908,534.718,369.197z"/>
	<path fill="#FFFFFF" d="M443.588,393.99c0-11.615-8.487-21.889-24.346-22.112c-10.721,0-21.442,0-32.163,0v66.56h12.731v-22.335
		h12.284l19.655,22.335h15.188v-0.893l-20.549-22.783C439.345,412.305,443.588,403.147,443.588,393.99z M399.811,404.935v-21.219
		h19.432c8.041,0,11.614,5.36,11.614,10.721c0,5.36-3.573,10.721-11.614,10.721h-19.432V404.935z"/>
	<polygon fill="#FFFFFF" points="322.752,438.438 373.454,438.438 373.454,426.153 335.483,426.153 335.483,411.188 
		360.053,411.188 360.053,399.351 335.483,399.351 335.483,384.162 373.454,384.162 373.454,371.877 322.752,371.877 	"/>
	<rect x="294.832" y="371.877" fill="#FFFFFF" width="12.731" height="66.56"/>
	<polygon fill="#FFFFFF" points="196.108,413.198 163.051,371.877 152.777,371.877 152.777,438.438 165.508,438.438 
		165.508,393.543 201.022,438.661 201.022,438.438 208.839,438.438 208.839,371.877 196.108,371.877 	"/>
	<path fill="#FFFFFF" d="M35.737,428.163c-16.752,0-23.229-11.614-23.229-22.559c0-10.945,6.924-23.006,23.229-23.006
		c5.807,0,11.838,2.01,16.305,6.254l8.487-8.041c-6.924-6.701-15.635-10.274-24.792-10.274C11.391,370.537,0,388.406,0,405.828
		c0,17.198,10.721,34.396,35.737,34.396c9.828,0,18.762-3.127,25.686-9.827l-8.711-8.711
		C48.469,425.93,41.768,428.163,35.737,428.163z"/>
	<path fill="#FFFFFF" d="M104.084,370.537c-23.452,0-34.844,17.646-34.844,35.291c0,17.645,11.168,34.174,34.844,34.174
		c23.676,0,34.397-17.199,34.621-34.397C138.929,388.183,127.314,370.537,104.084,370.537z M104.084,428.61
		c-15.858,0-21.889-11.614-22.112-22.56c-0.223-11.167,6.254-23.899,22.112-23.899s22.336,12.508,22.113,23.676
		C125.974,416.772,119.943,428.61,104.084,428.61z"/>
	<path fill="#FFFFFF" d="M258.202,428.163c-16.752,0-23.229-11.614-23.229-22.559c0-11.168,6.924-23.006,23.229-23.006
		c5.807,0,11.838,2.01,16.305,6.254l8.488-8.041c-6.924-6.701-15.635-10.274-24.792-10.274c-24.346,0-35.961,17.646-35.737,35.067
		c0,17.198,10.721,34.396,35.737,34.396c9.828,0,18.762-3.127,25.686-9.827l-8.711-8.711
		C270.709,425.93,264.009,428.163,258.202,428.163z"/>
</g>
</svg>
